<svg xmlns="http://www.w3.org/2000/svg" viewBox="0 0 64 64">
  <defs>
    <linearGradient id="g" x1="0" x2="1" y1="0" y2="1">
      <stop offset="0%" stop-color="#145a8b"/>
      <stop offset="100%" stop-color="#0f2f54"/>
    </linearGradient>
  </defs>
  <rect width="64" height="64" rx="12" fill="url(#g)"/>
  <g fill="#ffffff">
    <path d="M14 23h24c2.2 0 4 1.8 4 4v12h-4a6 6 0 0 0-12 0H22a6 6 0 0 0-12 0h-2V27c0-2.2 1.8-4 4-4h2z"/>
    <path d="M44 28h8l4 6v5h-2a6 6 0 0 0-12 0h-2V28h4z"/>
    <circle cx="16" cy="41" r="4"/>
    <circle cx="32" cy="41" r="4"/>
    <circle cx="48" cy="41" r="4"/>
  </g>
</svg>
